<svg width="63" height="63" viewBox="0 0 63 63" fill="none" xmlns="http://www.w3.org/2000/svg">
<path d="M31.5 37.0125C28.5469 37.0125 25.9875 34.65 25.9875 31.5C25.9875 28.5469 28.35 25.9875 31.5 25.9875C34.4531 25.9875 37.0125 28.35 37.0125 31.5C37.0125 34.4531 34.4531 37.0125 31.5 37.0125Z" fill="black"/>
<path fill-rule="evenodd" clip-rule="evenodd" d="M38.1937 18.1125H24.8063C23.2313 18.3094 22.4438 18.5062 21.8531 18.7031C21.0656 18.9 20.475 19.2937 19.8844 19.8844C19.417 20.3517 19.1962 20.8191 18.9293 21.384C18.859 21.5329 18.7852 21.6889 18.7031 21.8531C18.6727 21.9445 18.6375 22.0406 18.5998 22.1436C18.3938 22.7062 18.1125 23.4749 18.1125 24.8062V38.1937C18.3094 39.7687 18.5062 40.5562 18.7031 41.1469C18.9 41.9344 19.2938 42.525 19.8844 43.1156C20.3517 43.583 20.8191 43.8038 21.384 44.0707C21.533 44.1411 21.6888 44.2147 21.8531 44.2969C21.9445 44.3273 22.0406 44.3625 22.1436 44.4002C22.7062 44.6061 23.4749 44.8875 24.8063 44.8875H38.1937C39.7687 44.6906 40.5563 44.4937 41.1469 44.2969C41.9344 44.1 42.525 43.7062 43.1156 43.1156C43.583 42.6483 43.8038 42.1809 44.0707 41.616C44.1411 41.4671 44.2147 41.3112 44.2969 41.1469C44.3273 41.0555 44.3625 40.9594 44.4002 40.8564C44.6062 40.2937 44.8875 39.5251 44.8875 38.1937V24.8062C44.6906 23.2312 44.4938 22.4437 44.2969 21.8531C44.1 21.0656 43.7062 20.475 43.1156 19.8844C42.6483 19.417 42.1809 19.1962 41.616 18.9293C41.4673 18.859 41.311 18.7852 41.1469 18.7031C41.0555 18.6727 40.9594 18.6375 40.8564 18.5998C40.2938 18.3938 39.5251 18.1125 38.1937 18.1125ZM31.5 23.0344C26.775 23.0344 23.0344 26.775 23.0344 31.5C23.0344 36.225 26.775 39.9656 31.5 39.9656C36.225 39.9656 39.9656 36.225 39.9656 31.5C39.9656 26.775 36.225 23.0344 31.5 23.0344ZM42.1312 22.8375C42.1312 23.9248 41.2498 24.8062 40.1625 24.8062C39.0752 24.8062 38.1937 23.9248 38.1937 22.8375C38.1937 21.7502 39.0752 20.8687 40.1625 20.8687C41.2498 20.8687 42.1312 21.7502 42.1312 22.8375Z" fill="black"/>
<path fill-rule="evenodd" clip-rule="evenodd" d="M0 31.5C0 14.103 14.103 0 31.5 0C48.897 0 63 14.103 63 31.5C63 48.897 48.897 63 31.5 63C14.103 63 0 48.897 0 31.5ZM24.8063 15.1594H38.1937C39.9656 15.3562 41.1469 15.5531 42.1312 15.9469C43.3125 16.5375 44.1 16.9312 45.0844 17.9156C46.0687 18.9 46.6594 19.8844 47.0531 20.8687C47.4469 21.8531 47.8406 23.0344 47.8406 24.8062V38.1937C47.6437 39.9656 47.4469 41.1469 47.0531 42.1312C46.4625 43.3125 46.0687 44.1 45.0844 45.0844C44.1 46.0687 43.1156 46.6594 42.1312 47.0531C41.1469 47.4469 39.9656 47.8406 38.1937 47.8406H24.8063C23.0344 47.6437 21.8531 47.4469 20.8688 47.0531C19.6875 46.4625 18.9 46.0687 17.9156 45.0844C16.9313 44.1 16.3406 43.1156 15.9469 42.1312C15.5531 41.1469 15.1594 39.9656 15.1594 38.1937V24.8062C15.3562 23.0344 15.5531 21.8531 15.9469 20.8687C16.5375 19.6875 16.9313 18.9 17.9156 17.9156C18.9 16.9312 19.8844 16.3406 20.8688 15.9469C21.8531 15.5531 23.0344 15.1594 24.8063 15.1594Z" fill="black"/>
</svg>
