<svg width="63" height="63" viewBox="0 0 63 63" fill="none" xmlns="http://www.w3.org/2000/svg">
<path fill-rule="evenodd" clip-rule="evenodd" d="M31.5 63C14.103 63 0 48.897 0 31.5C0 14.103 14.103 0 31.5 0C48.897 0 63 14.103 63 31.5C63 48.897 48.897 63 31.5 63ZM32.8621 23.6395C30.0409 24.813 24.4024 27.2417 15.9467 30.9257C14.5736 31.4717 13.8544 32.0059 13.7889 32.5282C13.6782 33.4109 14.7836 33.7585 16.2889 34.2319C16.4937 34.2962 16.7058 34.363 16.9233 34.4337C18.4043 34.9151 20.3965 35.4783 21.4321 35.5006C22.3716 35.5209 23.4201 35.1336 24.5777 34.3387C32.4781 29.0057 36.5563 26.3102 36.8124 26.2521C36.993 26.2111 37.2433 26.1595 37.4129 26.3103C37.5825 26.461 37.5658 26.7465 37.5479 26.8231C37.4384 27.2899 33.0992 31.324 30.8537 33.4116C30.1537 34.0624 29.6571 34.5241 29.5556 34.6295C29.3282 34.8657 29.0964 35.0891 28.8737 35.3038C27.4979 36.6301 26.4661 37.6248 28.9308 39.249C30.1153 40.0295 31.0631 40.675 32.0087 41.3189C33.0413 42.0222 34.0713 42.7236 35.4039 43.5971C35.7434 43.8197 36.0677 44.0509 36.3835 44.276C37.5853 45.1328 38.6649 45.9025 39.9988 45.7797C40.7739 45.7084 41.5745 44.9796 41.9811 42.806C42.942 37.6691 44.8307 26.5389 45.2672 21.9525C45.3055 21.5506 45.2574 21.0364 45.2187 20.8106C45.1801 20.5849 45.0994 20.2632 44.8059 20.0251C44.4584 19.7431 43.9219 19.6837 43.682 19.6877C42.591 19.7071 40.9172 20.2891 32.8621 23.6395Z" fill="black"/>
</svg>
