<svg width="63" height="63" viewBox="0 0 63 63" fill="none" xmlns="http://www.w3.org/2000/svg">
<circle cx="31.5" cy="31.5" r="31.5" fill="black"/>
<path fill-rule="evenodd" clip-rule="evenodd" d="M29.3219 20H34.6781C37.0715 20 38.9672 20 40.4508 20.1925C41.9777 20.3907 43.2135 20.8082 44.1881 21.749C45.1628 22.6898 45.5953 23.8828 45.8006 25.3567C46 26.7888 46 28.6188 46 30.9291V31.0709C46 33.3812 46 35.2112 45.8006 36.6433C45.5953 38.1172 45.1628 39.3102 44.1881 40.251C43.2135 41.1918 41.9777 41.6093 40.4508 41.8075C38.9672 42 37.0715 42 34.6781 42H29.3219C26.9285 42 25.0328 42 23.5492 41.8075C22.0223 41.6093 20.7865 41.1918 19.8119 40.251C18.8372 39.3102 18.4047 38.1172 18.1994 36.6433C18 35.2112 18 33.3812 18 31.0709V30.9291C18 28.6187 18 26.7888 18.1994 25.3567C18.4047 23.8828 18.8372 22.6898 19.8119 21.749C20.7865 20.8082 22.0223 20.3907 23.5492 20.1925C25.0328 20 26.9285 20 29.3219 20ZM23.8095 22.0614C22.4992 22.2315 21.7443 22.5504 21.1932 23.0824C20.642 23.6144 20.3117 24.3431 20.1355 25.6079C19.9556 26.8998 19.9535 28.6029 19.9535 31C19.9535 33.3971 19.9556 35.1002 20.1355 36.3921C20.3117 37.6569 20.642 38.3856 21.1932 38.9176C21.7443 39.4496 22.4992 39.7685 23.8095 39.9386C25.1478 40.1123 26.912 40.1143 29.3953 40.1143H34.6047C37.088 40.1143 38.8522 40.1123 40.1905 39.9386C41.5008 39.7685 42.2557 39.4496 42.8068 38.9176C43.358 38.3856 43.6883 37.6569 43.8645 36.3921C44.0444 35.1002 44.0465 33.3971 44.0465 31C44.0465 28.6029 44.0444 26.8998 43.8645 25.6079C43.6883 24.3431 43.358 23.6144 42.8068 23.0824C42.2557 22.5504 41.5008 22.2315 40.1905 22.0614C38.8522 21.8877 37.088 21.8857 34.6047 21.8857H29.3953C26.912 21.8857 25.1478 21.8877 23.8095 22.0614ZM23.4357 25.3678C23.781 24.9678 24.3969 24.9137 24.8113 25.2471L27.6229 27.5088C28.8379 28.4862 29.6815 29.1626 30.3937 29.6047C31.0831 30.0327 31.5506 30.1764 32 30.1764C32.4494 30.1764 32.9169 30.0327 33.6063 29.6047C34.3185 29.1626 35.1621 28.4862 36.3771 27.5088L39.1887 25.2471C39.6031 24.9137 40.219 24.9678 40.5643 25.3678C40.9096 25.7679 40.8537 26.3624 40.4392 26.6958L37.5787 28.9968C36.4244 29.9254 35.4888 30.6781 34.663 31.1907C33.8028 31.7248 32.9651 32.0621 32 32.0621C31.0349 32.0621 30.1972 31.7248 29.337 31.1907C28.5112 30.6781 27.5756 29.9254 26.4213 28.9968L23.5608 26.6958C23.1463 26.3624 23.0903 25.7679 23.4357 25.3678Z" fill="white"/>
</svg>
