<svg width="63" height="63" viewBox="0 0 63 63" fill="none" xmlns="http://www.w3.org/2000/svg">
<rect width="63" height="63" rx="31.5" fill="black"/>
<g clip-path="url(#clip0_6763_4314)">
<path fill-rule="evenodd" clip-rule="evenodd" d="M12.8333 55.5H50.1667C53.1122 55.5 55.5 53.1122 55.5 50.1667V12.8333C55.5 9.88781 53.1122 7.5 50.1667 7.5H12.8333C9.88781 7.5 7.5 9.88781 7.5 12.8333V50.1667C7.5 53.1122 9.88781 55.5 12.8333 55.5Z" fill="black"/>
<path fill-rule="evenodd" clip-rule="evenodd" d="M48.8346 48.8334H41.7117V36.7014C41.7117 33.3752 40.4478 31.5164 37.8151 31.5164C34.951 31.5164 33.4547 33.4508 33.4547 36.7014V48.8334H26.5902V25.7222H33.4547V28.8353C33.4547 28.8353 35.5187 25.0162 40.423 25.0162C45.3251 25.0162 48.8346 28.0097 48.8346 34.2008V48.8334ZM18.4009 22.696C16.0627 22.696 14.168 20.7865 14.168 18.4314C14.168 16.0763 16.0627 14.1667 18.4009 14.1667C20.7391 14.1667 22.6326 16.0763 22.6326 18.4314C22.6326 20.7865 20.7391 22.696 18.4009 22.696ZM14.8563 48.8334H22.0142V25.7222H14.8563V48.8334Z" fill="white"/>
</g>
<defs>
<clipPath id="clip0_6763_4314">
<rect width="48" height="48" fill="white" transform="translate(7.5 7.5)"/>
</clipPath>
</defs>
</svg>
