<svg width="63" height="63" viewBox="0 0 63 63" fill="none" xmlns="http://www.w3.org/2000/svg">
<circle cx="31.5" cy="31.5" r="31.5" fill="black"/>
<path fill-rule="evenodd" clip-rule="evenodd" d="M35.905 22.1056C35.921 22.1199 35.9372 22.1342 35.9533 22.1486L40.9706 26.6084C41.9068 27.4405 42.6828 28.1303 43.2157 28.7565C43.7757 29.4146 44.1745 30.1232 44.1745 31C44.1745 31.8768 43.7757 32.5853 43.2157 33.2434C42.6828 33.8696 41.9068 34.5594 40.9706 35.3916L35.9533 39.8514C35.9371 39.8657 35.921 39.88 35.905 39.8943C35.4994 40.2549 35.121 40.5914 34.794 40.8073C34.4729 41.0193 33.889 41.3273 33.2349 41.0336C32.5808 40.7398 32.4231 40.0988 32.3682 39.718C32.3123 39.3302 32.3124 38.8237 32.3125 38.281C32.3125 38.2596 32.3125 38.238 32.3125 38.2164V36.2557C30.4981 36.3808 28.6595 36.8627 27.0513 37.6463C25.1601 38.5678 23.6497 39.8744 22.8301 41.4357C22.6296 41.8176 22.1944 42.0134 21.7756 41.9102C21.3568 41.8069 21.0625 41.4313 21.0625 41C21.0625 35.0988 22.7892 31.2563 25.2581 28.894C27.4101 26.8349 30.0329 25.99 32.3125 25.8132V23.7835C32.3125 23.7619 32.3125 23.7404 32.3125 23.7189C32.3124 23.1762 32.3123 22.6697 32.3682 22.2819C32.4231 21.9011 32.5808 21.2601 33.2349 20.9664C33.889 20.6726 34.4729 20.9806 34.794 21.1926C35.121 21.4085 35.4994 21.745 35.905 22.1056ZM34.1913 23.0962C34.3327 23.2173 34.5014 23.3667 34.7076 23.5499L39.673 27.9636C40.6743 28.8537 41.35 29.4572 41.7877 29.9716C42.2081 30.4656 42.2995 30.7541 42.2995 31C42.2995 31.2458 42.2081 31.5343 41.7877 32.0283C41.35 32.5427 40.6744 33.1462 39.673 34.0363L34.7076 38.45C34.5014 38.6332 34.3327 38.7826 34.1913 38.9038C34.188 38.7177 34.1875 38.4923 34.1875 38.2164V35.2857C34.1875 34.7679 33.7678 34.3482 33.25 34.3482C30.8593 34.3482 28.3749 34.9156 26.23 35.9608C25.0814 36.5204 24.0122 37.2263 23.1049 38.0709C23.5659 34.2622 24.928 31.8049 26.5544 30.2488C28.5794 28.3112 31.138 27.6517 33.25 27.6517C33.7678 27.6517 34.1875 27.232 34.1875 26.7142V23.7835C34.1875 23.5076 34.188 23.2823 34.1913 23.0962Z" fill="white"/>
</svg>
