<svg width="63" height="63" viewBox="0 0 63 63" fill="none" xmlns="http://www.w3.org/2000/svg">
<path fill-rule="evenodd" clip-rule="evenodd" d="M24.8063 42.7219C26.775 43.9031 29.1375 44.4937 31.5 44.4937C38.7844 44.4937 44.4938 38.5875 44.4938 31.6969C44.4938 28.1531 43.3125 25.0031 40.7532 22.4438C38.1938 20.0812 35.0438 18.7031 31.5 18.7031C24.4125 18.7031 18.5062 24.6094 18.5062 31.6969C18.5062 34.0594 19.0969 36.4219 20.475 38.5875L20.8688 39.1781L19.4906 43.9031L24.4125 42.525L24.8063 42.7219ZM35.8313 33.4688C36.225 33.4688 38.1938 34.4531 38.5875 34.65C38.6488 34.6807 38.7101 34.7065 38.7707 34.7321C39.0991 34.8707 39.4057 35.0002 39.5719 35.8312C39.7688 35.8312 39.7687 36.6187 39.375 37.6031C39.1781 38.3906 37.6032 39.375 36.8157 39.375C36.6822 39.375 36.5545 39.3863 36.418 39.3984C35.7489 39.4576 34.8704 39.5353 32.0906 38.3906C28.6404 37.0106 26.2484 33.6655 25.5767 32.7261C25.4818 32.5934 25.4212 32.5087 25.3969 32.4844C25.3633 32.4173 25.2956 32.3103 25.2062 32.1692C24.7706 31.4815 23.8219 29.9835 23.8219 28.35C23.8219 26.3813 24.8062 25.3969 25.2 25.0031C25.5937 24.6094 25.9875 24.6094 26.1844 24.6094H26.9719C27.1688 24.6094 27.5625 24.6094 27.7594 25.2C28.1531 25.9875 28.9406 27.9562 28.9406 28.1531C28.9406 28.2188 28.9625 28.2844 28.9844 28.35C29.0281 28.4813 29.0719 28.6125 28.9406 28.7437C28.8422 28.8422 28.793 28.9406 28.7438 29.0391C28.6945 29.1375 28.6453 29.236 28.5469 29.3344L27.9563 29.925C27.7594 30.1219 27.5625 30.3188 27.7594 30.7125C27.9563 31.1063 28.7438 32.4844 29.925 33.4688C31.2541 34.6317 32.3028 35.0937 32.8345 35.3279C32.9329 35.3712 33.0135 35.4068 33.075 35.4375C33.4687 35.4375 33.6657 35.4375 33.8625 35.2406C33.961 35.0438 34.207 34.7484 34.4531 34.4531C34.6992 34.1578 34.9453 33.8625 35.0437 33.6656C35.2406 33.2719 35.4375 33.2719 35.8313 33.4688Z" fill="black"/>
<path fill-rule="evenodd" clip-rule="evenodd" d="M0 31.5C0 14.103 14.103 0 31.5 0C48.897 0 63 14.103 63 31.5C63 48.897 48.897 63 31.5 63C14.103 63 0 48.897 0 31.5ZM31.5 15.75C35.6344 15.75 39.5719 17.325 42.525 20.2781C45.4781 23.2313 47.25 27.1688 47.25 31.3031C47.25 39.9656 40.1625 47.0531 31.5 47.0531C28.9406 47.0531 26.3813 46.2656 24.0188 45.0844L15.75 47.25L17.9156 39.375C16.5375 37.0125 15.75 34.2563 15.75 31.5C15.75 22.8375 22.8375 15.75 31.5 15.75Z" fill="black"/>
</svg>
