<svg width="63" height="63" viewBox="0 0 63 63" fill="none" xmlns="http://www.w3.org/2000/svg">
<path fill-rule="evenodd" clip-rule="evenodd" d="M0 31.5C0 14.103 14.103 0 31.5 0C48.897 0 63 14.103 63 31.5C63 48.897 48.897 63 31.5 63C14.103 63 0 48.897 0 31.5ZM31.5 15.75C40.1625 15.75 47.25 22.8375 47.25 31.5C47.25 39.375 41.5406 46.0687 33.6656 47.25V36.0281H37.4062L38.1937 31.5H33.8625V28.5469C33.8625 27.3656 34.4531 26.1844 36.4219 26.1844H38.3906V22.2469C38.3906 22.2469 36.6188 21.8531 34.8469 21.8531C31.3031 21.8531 28.9406 24.0187 28.9406 27.9562V31.5H25.0031V36.0281H28.9406V47.0531C21.4594 45.8719 15.75 39.375 15.75 31.5C15.75 22.8375 22.8375 15.75 31.5 15.75Z" fill="black"/>
</svg>
